<svg xmlns:xlink="http://www.w3.org/1999/xlink" height="100" version="1.1" viewBox="0 0 100 100"
    width="100" xmlns="http://www.w3.org/2000/svg">
    <defs>
        <path d="M0 0h54l21 22.227V98H0z" fill="#E5E8EB" id="a" />
        <path d="M54 0l21 22.227H54z" fill="#535C69" id="b" opacity=".3" />
        <path d="M30 44.454h55v28.288H30z" id="c" />
    </defs>
    <g fill="none" fill-rule="evenodd">
        <g fill-rule="nonzero" transform="translate(12 1)">
            <path d="M54 0l21 22.227V98H0V0z" fill="#E5E8EB" />
            <use xlink:href="#b" />
            <use fill="#2C77B1" xlink:href="#c" />
            <path d="M37.55 65.271h3.92c5.022 0 7.903-3.03 7.903-7.335 0-4.216-2.665-7.137-7.73-7.137h-4.094v14.473l.001-.001zm2.274-1.955V52.753h1.623c3.702 0 5.5 2.087 5.5 5.205 0 2.9-1.45 5.358-5.456 5.358H39.824zm18.813 2.175c4.072 0 7.103-2.922 7.103-7.4 0-4.35-2.923-7.423-7.103-7.423-4.158 0-7.124 3.03-7.124 7.424 0 4.455 2.987 7.4 7.124 7.4zm0-1.956c-2.814 0-4.7-2.064-4.7-5.445 0-3.38 1.886-5.468 4.7-5.468 2.923 0 4.7 2.195 4.7 5.469 0 3.38-1.885 5.445-4.7 5.445zm20.502-.966a6.695 6.695 0 0 1-3.465.967c-3.03 0-4.916-2.217-4.916-5.4 0-3.01 1.82-5.512 5.024-5.512a7.374 7.374 0 0 1 3.615.922v-2.152c-.824-.394-2.123-.724-3.66-.724-4.46 0-7.406 3.338-7.406 7.533 0 4.237 2.555 7.291 7.08 7.291a8.696 8.696 0 0 0 4.355-1.1l-.63-1.822.003-.003z"
                fill="#FFF" />
        </g>

    </g>
</svg>