<svg xmlns:xlink="http://www.w3.org/1999/xlink" height="100" version="1.1" viewBox="0 0 100 100"
    width="100" xmlns="http://www.w3.org/2000/svg">
    <defs>
        <path d="M0 0h54l21 22.227V98H0z" fill="#E5E8EB" id="a" />
        <path d="M54 0l21 22.227H54z" fill="#535C69" id="b" opacity=".3" />
        <path d="M30 44.454h55v28.288H30z" id="c" />
    </defs>
    <g fill="none" fill-rule="evenodd">
        <g fill-rule="nonzero" transform="translate(12 1)">
            <use xlink:href="#a" />
            <use xlink:href="#b" />
            <use fill="#D73B41" xlink:href="#c" />
            <path d="M41.68 65.271h2.274v-5.095h.714c1.277 0 2.23-.198 2.988-.527 1.905-.813 2.62-2.482 2.62-4.173 0-1.91-.823-3.294-2.23-4.041-.823-.439-1.82-.637-3.183-.637H41.68v14.473zm2.274-6.983v-5.6h.844c.844 0 1.45.153 1.905.417.8.483 1.19 1.34 1.19 2.371 0 1.164-.41 2.02-1.276 2.438-.433.242-1.018.374-1.797.374h-.866zm9.545 6.983h3.92c5.022 0 7.903-3.03 7.903-7.335 0-4.216-2.664-7.137-7.73-7.137H53.5v14.473l-.001-.001zm2.274-1.955V52.753h1.624c3.702 0 5.5 2.087 5.5 5.203 0 2.9-1.45 5.36-5.457 5.36H55.773zm12.34 1.955h2.272V58.88h4.592v-1.955h-4.592v-4.173h4.678l.65-1.954h-7.6v14.473z"
                fill="#FFF" />
        </g>
    </g>
</svg>