<svg xmlns:xlink="http://www.w3.org/1999/xlink" height="100" version="1.1" viewBox="0 0 100 100"
    width="100" xmlns="http://www.w3.org/2000/svg">
    <defs>
        <path d="M0 0h54l21 22.227V98H0z" fill="#E5E8EB" id="a" />
        <path d="M54 0l21 22.227H54z" fill="#535C69" id="b" opacity=".3" />
        <path d="M30 44.454h55v28.288H30z" id="c" />
    </defs>
    <g fill="none" fill-rule="evenodd">
        <g fill-rule="nonzero" transform="translate(12 1)">
            <use xlink:href="#a" />
            <use xlink:href="#b" />
            <use fill="#746781" xlink:href="#c" />
            <path d="M40.08 65.271h2.273v-5.095h.716c1.277 0 2.23-.198 2.987-.525 1.905-.815 2.62-2.483 2.62-4.175 0-1.91-.823-3.294-2.23-4.04-.823-.439-1.82-.636-3.183-.636H40.08v14.471zm2.273-6.983v-5.6h.846c.844 0 1.45.153 1.904.417.8.483 1.19 1.34 1.19 2.371 0 1.164-.41 2.02-1.276 2.439-.433.242-1.018.374-1.797.374h-.867v-.001zm10.414 6.983h2.273v-6.412h7.146v6.412h2.275V50.798h-2.274v6.106H55.04v-6.105h-2.273v14.473-.001zm16 0h2.272v-5.095h.713c1.28 0 2.232-.198 2.99-.525 1.905-.815 2.62-2.483 2.62-4.175 0-1.91-.823-3.294-2.23-4.04-.823-.439-1.82-.636-3.185-.636h-3.182v14.471h.002zm2.272-6.983v-5.6h.843c.846 0 1.452.153 1.907.417.8.483 1.19 1.34 1.19 2.371 0 1.164-.41 2.02-1.276 2.439-.433.242-1.018.374-1.8.374h-.865l.001-.001z"
                fill="#FFF" />
        </g>

    </g>
</svg>