<svg xmlns:xlink="http://www.w3.org/1999/xlink" height="100" version="1.1" viewBox="0 0 100 100"
    width="100" xmlns="http://www.w3.org/2000/svg">
    <defs>
        <path d="M0 0h54l21 22.227V98H0z" fill="#E5E8EB" id="a" />
        <path d="M54 0l21 22.227H54z" fill="#535C69" id="b" opacity=".3" />
        <path d="M30 44.454h55v28.288H30z" id="c" />
    </defs>
    <g fill="none" fill-rule="evenodd">
        <g fill-rule="nonzero" transform="translate(12 1)">
            <path d="M54 0l21 22.227V98H0V0z" fill="#E5E8EB" />
            <use xlink:href="#b" />
            <use fill="#E89E00" xlink:href="#c" />
            <path d="M42.978 65.271h2.275v-5.095h.714c1.277 0 2.23-.198 2.988-.525 1.905-.815 2.62-2.483 2.62-4.175 0-1.91-.823-3.294-2.23-4.04-.823-.439-1.82-.636-3.183-.636h-3.184v14.471zm2.275-6.983v-5.6h.844c.844 0 1.45.153 1.905.417.8.483 1.19 1.34 1.19 2.371 0 1.164-.41 2.02-1.276 2.439-.433.242-1.018.374-1.797.374h-.867l.001-.001zm9.112 6.983h2.275v-5.095h.715c1.277 0 2.23-.198 2.987-.525 1.906-.815 2.62-2.483 2.62-4.175 0-1.91-.823-3.294-2.23-4.04-.823-.439-1.818-.636-3.182-.636h-3.185v14.471zm2.275-6.983v-5.6h.845c.844 0 1.45.153 1.905.417.8.483 1.19 1.34 1.19 2.371 0 1.164-.41 2.02-1.277 2.439-.433.242-1.017.374-1.797.374h-.866v-.001zm12.252 6.983h2.275V52.753h3.875l.65-1.954H64.757v1.955h4.135v12.518-.001z"
                fill="#FFF" />
        </g>

    </g>
</svg>