<svg xmlns:xlink="http://www.w3.org/1999/xlink" height="100" version="1.1" viewBox="0 0 100 100"
    width="100" xmlns="http://www.w3.org/2000/svg">
    <defs>
        <path d="M0 0h54l21 22.227V98H0z" fill="#E5E8EB" id="a" />
        <path d="M54 0l21 22.227H54z" fill="#535C69" id="b" opacity=".3" />
        <path d="M30 44.454h55v28.288H30z" id="c" />
    </defs>
    <g fill-rule="nonzero" transform="translate(12 1)">
        <use xlink:href="#a" />
        <use xlink:href="#b" />
        <use fill="#7EAB34" xlink:href="#c" />
        <path d="M40.08 65.271h2.273v-5.797h1.344c.39.088.91.702 1.602 1.954l2.186 3.844h2.62l-2.447-4.26c-.76-1.296-1.322-2.087-1.755-2.328v-.044c1.71-.547 2.815-1.822 2.815-3.776 0-1.404-.563-2.68-1.97-3.405-.736-.416-1.71-.657-3.096-.657H40.08v14.471-.002zm2.273-7.709v-4.874h1.236c.887 0 1.45.198 1.84.505.627.394.93 1.098.93 1.91 0 .966-.433 1.668-1.082 2.065a3.352 3.352 0 0 1-1.71.394h-1.215.001zm8.054 7.709h2.38l1.365-3.712h5.284l1.408 3.713h2.448L57.64 50.734h-1.754l-5.48 14.538.001-.001zm4.418-5.6l1.17-3.294a25.1 25.1 0 0 0 .78-2.327h.042c.15.482.368 1.141.758 2.326l1.17 3.296h-3.92v-.001zm9.936 5.6h2.274v-5.797h1.342c.39.088.91.702 1.604 1.954l2.186 3.844h2.62l-2.446-4.26c-.758-1.296-1.32-2.087-1.754-2.328v-.044c1.71-.547 2.814-1.822 2.814-3.776 0-1.404-.562-2.68-1.97-3.405-.736-.416-1.71-.657-3.097-.657H64.76v14.471l.001-.002zm2.274-7.709v-4.874h1.234c.89 0 1.452.198 1.842.505.628.394.93 1.098.93 1.91 0 .966-.432 1.668-1.082 2.065a3.352 3.352 0 0 1-1.712.394h-1.212z"
            fill="#FFF" />
        <path d="M26 2.02v3.032h-5V2.02h5zm0 4.042v2.02h-5v-2.02h5zm-5 3.03h5v2.021h-5v-2.02zm0 3.032h5v2.02h-5v-2.02zm0 3.03h5v2.021h-5v-2.02zm0 3.032h5v2.02h-5v-2.02zm5 3.03v2.021h-5v-2.02h5zm-5 3.031h5v2.021h-5v-2.02zm0 3.031h5V29.3h-5v-2.02zm0 3.031h5v2.02h-5v-2.02zm0 3.031h5v2.02h-5v-2.02zm0 3.031h5v3.031h-5v-3.03zm7-34.35h5v3.03h-5v-3.03zm0 4.04h5v2.021h-5v-2.02zm0 3.032h5v2.02h-5v-2.02zm0 3.03h5v2.021h-5v-2.02zm0 3.032h5v2.02h-5v-2.02zm0 3.03h5v2.021h-5v-2.02zm0 3.031h5v2.021h-5v-2.02zm0 3.031h5v2.021h-5v-2.02zm0 3.031h5V29.3h-5v-2.02zm0 3.031h5v2.02h-5v-2.02zm0 3.031h5v2.02h-5v-2.02zm0 3.031h5v3.031h-5v-3.03z"
            fill="#B9BEC4" />
    </g>
</svg>