<svg xmlns:xlink="http://www.w3.org/1999/xlink" height="100" version="1.1" viewBox="0 0 100 100"
    width="100" xmlns="http://www.w3.org/2000/svg">
    <defs>
        <path d="M0 0h54l21 22.227V98H0z" fill="#E5E8EB" id="a" />
        <path d="M54 0l21 22.227H54z" fill="#535C69" id="b" opacity=".3" />
        <path d="M30 44.454h55v28.288H30z" id="c" />
    </defs>
    <g fill="none" fill-rule="evenodd">
        <g fill-rule="nonzero">
            <path d="M0 23.83h99.795v66.863H0z" fill="#86E0FB" />
            <path d="M0 17.143h99.795v6.686H0z" fill="#2FC7F7" />
            <path d="M0 08.818h49.887l11.088 11.142H0z" fill="#2FC7F7" />
            <path d="M96.967 78.155c-3.552-2.405-6.43-3.332-9.148-3.51-3.937-.257-10.35 3.135-13.475 3.19-3.123.054-9.314-5.762-7.875-4.583 1.44 1.178-8.945-6.63-9.43-7.604-.486-.975.9-2.067 2.152-1.403 1.25.664 11.103 6.202 12.66 6.722 1.557.52 8.15.168 8.15.168l.786-.29c.457-.324.558-.774-.12-1.135-.915-.485-9.315-2.754-9.315-2.754s-.826-1.822.56-2.17c1.388-.35 14.228.532 16.113 1.07 1.884.54 5.39 3.02 5.39 3.02l4.145 2.292-.593 6.987zm-82.177.961c0 1.365.665 2.048 1.992 2.048s1.99-.683 1.99-2.048v-18.435h2.04v18.436c0 1.365.664 2.048 1.99 2.048 1.328 0 1.99-.683 1.99-2.048v-31.407h.972v11.313c0 .715.243 1.236.728 1.56a1.28 1.28 0 0 0 1.505 0c.518-.324.777-.845.777-1.56v-12.192c0-1.3-.437-2.308-1.31-3.023-.874-.715-2.088-1.073-3.64-1.073H15.86c-1.49 0-2.704.326-3.642.976-.938.65-1.407 1.658-1.407 3.023v12.973a1.32 1.32 0 0 0 .778 1.268 1.55 1.55 0 0 0 1.505 0 1.33 1.33 0 0 0 .73-1.268v-11.997h.968v31.406h-.002zm.78-42.283a4.14 4.14 0 0 0 2.545 3.83 4.104 4.104 0 0 0 4.494-.904 4.06 4.06 0 0 0 1.213-2.977 3.948 3.948 0 0 0-1.214-2.877 4.11 4.11 0 0 0-4.492-.896 4.147 4.147 0 0 0-2.548 3.822l.002.002zm20.843 42.283c0 1.365.664 2.048 1.99 2.048 1.33 0 1.992-.683 1.992-2.048v-18.435h2.04v18.436c0 1.365.663 2.048 1.99 2.048 1.328 0 1.99-.683 1.99-2.048v-31.407h.97v11.313c0 .715.244 1.236.73 1.56a1.28 1.28 0 0 0 1.505 0c.517-.324.776-.845.776-1.56v-12.192c0-1.3-.437-2.308-1.31-3.023-.874-.715-2.088-1.073-3.64-1.073h-7.963c-1.49 0-2.705.326-3.643.976-.938.65-1.407 1.658-1.407 3.023v12.973a1.32 1.32 0 0 0 .777 1.268 1.55 1.55 0 0 0 1.505 0 1.33 1.33 0 0 0 .73-1.268v-11.997h.968v31.406zm.78-42.283a4.14 4.14 0 0 0 2.544 3.83 4.104 4.104 0 0 0 4.494-.904 4.06 4.06 0 0 0 1.215-2.977 3.948 3.948 0 0 0-1.214-2.877 4.11 4.11 0 0 0-4.49-.896 4.147 4.147 0 0 0-2.548 3.822l-.001.002z"
                fill="#3EAFD2" />
        </g>

    </g>
</svg>