<svg xmlns:xlink="http://www.w3.org/1999/xlink" height="100" version="1.1" viewBox="0 0 100 100"
    width="100" xmlns="http://www.w3.org/2000/svg">
    <defs>
        <path d="M0 0h54l21 22.227V98H0z" fill="#E5E8EB" id="a" />
        <path d="M54 0l21 22.227H54z" fill="#535C69" id="b" opacity=".3" />
        <path d="M30 44.454h55v28.288H30z" id="c" />
    </defs>
    <g fill="none" fill-rule="evenodd">
        <g fill-rule="nonzero">
            <path d="M0 23.03h100v66.938H0z" fill="#86E0FB" />
            <path d="M0 17h100v7H0z" fill="#2FC7F7" />
            <path d="M0 08.002h49.99l11.11 11.155H0z" fill="#2FC7F7" />
            <path d="M33.488 80.714c0 1.367.665 2.05 1.995 2.05s1.995-.684 1.995-2.05v-18.457h2.044v18.457c0 1.367.665 2.05 1.995 2.05s1.994-.684 1.993-2.05v-31.443h.973v11.33c0 .714.244 1.236.73 1.56.45.327 1.058.327 1.51 0 .517-.324.777-.846.777-1.56v-12.207c0-1.302-.438-2.31-1.313-3.028-.876-.716-2.092-1.074-3.65-1.074H34.56c-1.493 0-2.71.327-3.65.978-.94.652-1.41 1.66-1.41 3.026v12.988a1.324 1.324 0 0 0 .778 1.27c.47.26 1.04.26 1.51 0 .473-.24.76-.738.73-1.27v-12.01h.97v31.442-.002zm.78-42.33a4.144 4.144 0 0 0 2.55 3.835 4.115 4.115 0 0 0 4.504-.908 4.06 4.06 0 0 0 1.216-2.977 3.953 3.953 0 0 0-1.216-2.882 4.122 4.122 0 0 0-4.5-.896 4.15 4.15 0 0 0-2.554 3.827v.001zm20.887 42.33c0 1.367.665 2.05 1.995 2.05s1.995-.684 1.995-2.05v-18.457h2.043v18.457c0 1.367.665 2.05 1.995 2.05s1.995-.684 1.994-2.05v-31.443h.973v11.33c0 .714.243 1.236.73 1.56.45.327 1.058.327 1.508 0 .52-.324.78-.846.78-1.56v-12.207c0-1.302-.44-2.31-1.315-3.028-.875-.716-2.09-1.074-3.648-1.074h-7.978c-1.494 0-2.71.327-3.65.978-.94.652-1.41 1.66-1.41 3.026v12.988a1.324 1.324 0 0 0 .778 1.27c.47.26 1.04.26 1.508 0 .474-.24.76-.738.73-1.27v-12.01h.972v31.442-.002zm.78-42.33a4.144 4.144 0 0 0 2.55 3.835 4.115 4.115 0 0 0 4.503-.908 4.06 4.06 0 0 0 1.217-2.977 3.953 3.953 0 0 0-1.217-2.882 4.122 4.122 0 0 0-4.5-.896 4.15 4.15 0 0 0-2.553 3.827v.001z"
                fill="#3EAFD2" />
        </g>

    </g>
</svg>