<svg xmlns:xlink="http://www.w3.org/1999/xlink" height="100" version="1.1" viewBox="0 0 100 100"
    width="100" xmlns="http://www.w3.org/2000/svg">
    <defs>
        <path d="M0 0h54l21 22.227V98H0z" fill="#E5E8EB" id="a" />
        <path d="M54 0l21 22.227H54z" fill="#535C69" id="b" opacity=".3" />
        <path d="M30 44.454h55v28.288H30z" id="c" />
    </defs>
    <g fill="none" fill-rule="evenodd">
        <g fill-rule="nonzero" transform="translate(12 1)">
            <path d="M54 0l21 22.227V98H0V0z" fill="#E5E8EB" />
            <use xlink:href="#b" />
            <use fill="#9BA4AE" xlink:href="#c" />
            <path d="M44.453 65.271h2.273V52.753h3.876l.65-1.954H40.316v1.955h4.136v12.518l.001-.001zm7.056 0H54l3.876-5.577 3.637 5.577h2.578l-4.785-7.335 4.938-7.137H61.73l-3.724 5.446-3.552-5.446h-2.577l4.678 7.204-5.046 7.269v-.001zm18.293 0h2.275V52.753h3.875l.65-1.954H65.668v1.955h4.135v12.518l-.001-.001z"
                fill="#FFF" />
        </g>

    </g>
</svg>