<svg xmlns:xlink="http://www.w3.org/1999/xlink" height="100" version="1.1" viewBox="0 0 100 100"
    width="100" xmlns="http://www.w3.org/2000/svg">
    <defs>
        <path d="M0 0h54l21 22.227V98H0z" fill="#E5E8EB" id="a" />
        <path d="M54 0l21 22.227H54z" fill="#535C69" id="b" opacity=".3" />
        <path d="M30 44.454h55v28.288H30z" id="c" />
    </defs>
    <g fill="none" fill-rule="evenodd">
        <g fill-rule="nonzero" transform="translate(12 1)">
            <use xlink:href="#a" />
            <use xlink:href="#b" />
            <use fill="#54B51E" xlink:href="#c" />
            <path d="M41.96 65.271h2.49l3.877-5.577 3.637 5.577h2.578l-4.786-7.335 4.938-7.137H52.18l-3.723 5.446-3.552-5.446h-2.577l4.678 7.204-5.046 7.269v-.001zm14.722 0h7.406v-1.955h-5.133V50.798h-2.273v14.473zm7.945-.99c.996.727 2.468 1.21 4.114 1.21 2.86 0 4.917-1.538 4.917-4.063 0-4.547-6.194-4.215-6.194-7.07 0-1.296 1.06-1.735 2.144-1.735 1.15.016 2.278.31 3.292.857v-2.087c-.737-.394-1.95-.724-3.358-.724-2.858 0-4.503 1.778-4.503 3.91 0 4.37 6.214 3.997 6.214 7.048 0 1.404-1.234 1.91-2.557 1.91a5.653 5.653 0 0 1-3.16-1.011l-.91 1.758.001-.003z"
                fill="#FFF" />
        </g>

    </g>
</svg>