<svg xmlns:xlink="http://www.w3.org/1999/xlink" height="100" version="1.1" viewBox="0 0 100 100"
    width="100" xmlns="http://www.w3.org/2000/svg">
    <defs>
        <path d="M0 0h54l21 22.227V98H0z" fill="#E5E8EB" id="a" />
        <path d="M54 0l21 22.227H54z" fill="#535C69" id="b" opacity=".3" />
        <path d="M30 44.454h55v28.288H30z" id="c" />
    </defs>
    <g fill="none" fill-rule="evenodd">
        <g fill-rule="nonzero" transform="translate(12 1)">
            <use xlink:href="#a" />
            <use xlink:href="#b" />
            <use fill="#AC5FBD" xlink:href="#c" />
            <path d="M39.04 65.271h10.872v-1.955h-7.167l6.992-12.518h-10.48l.607 1.955h6.28l-7.103 12.518h-.001zm12.666 0h2.273V50.798h-2.274v14.473h.001zm5.282 0h2.274v-5.095h.714c1.28 0 2.232-.198 2.99-.525 1.904-.815 2.62-2.483 2.62-4.175 0-1.91-.824-3.294-2.23-4.04-.824-.439-1.82-.636-3.183-.636h-3.185v14.471zm2.274-6.983v-5.6h.846c.844 0 1.45.153 1.905.417.8.483 1.19 1.34 1.19 2.371 0 1.164-.41 2.02-1.277 2.439-.433.242-1.017.374-1.797.374h-.868l.001-.001z"
                fill="#FFF" />
            <path d="M26 2.02v3.032h-5V2.02h5zm0 4.042v2.02h-5v-2.02h5zm-5 3.03h5v2.021h-5v-2.02zm0 3.032h5v2.02h-5v-2.02zm0 3.03h5v2.021h-5v-2.02zm0 3.032h5v2.02h-5v-2.02zm5 3.03v2.021h-5v-2.02h5zm-5 3.031h5v2.021h-5v-2.02zm0 3.031h5V29.3h-5v-2.02zm0 3.031h5v2.02h-5v-2.02zm0 3.031h5v2.02h-5v-2.02zm0 3.031h5v3.031h-5v-3.03zm7-34.35h5v3.03h-5v-3.03zm0 4.04h5v2.021h-5v-2.02zm0 3.032h5v2.02h-5v-2.02zm0 3.03h5v2.021h-5v-2.02zm0 3.032h5v2.02h-5v-2.02zm0 3.03h5v2.021h-5v-2.02zm0 3.031h5v2.021h-5v-2.02zm0 3.031h5v2.021h-5v-2.02zm0 3.031h5V29.3h-5v-2.02zm0 3.031h5v2.02h-5v-2.02zm0 3.031h5v2.02h-5v-2.02zm0 3.031h5v3.031h-5v-3.03z"
                fill="#B9BEC4" />
        </g>

    </g>
</svg>